<svg xmlns="http://www.w3.org/2000/svg" xmlns:xlink="http://www.w3.org/1999/xlink" width="500" zoomAndPan="magnify" viewBox="0 0 375 374.999991" height="500" preserveAspectRatio="xMidYMid meet" version="1.0"><defs><clipPath id="cfc6c98ed6"><path d="M 46.800781 60 L 333 60 L 333 300.066406 L 46.800781 300.066406 Z M 46.800781 60 " clip-rule="nonzero"/></clipPath><clipPath id="6ce9484fdd"><path d="M 46.800781 60 L 322 60 L 322 300.066406 L 46.800781 300.066406 Z M 46.800781 60 " clip-rule="nonzero"/></clipPath><clipPath id="84755ba568"><path d="M 243 33.816406 L 349.050781 33.816406 L 349.050781 140 L 243 140 Z M 243 33.816406 " clip-rule="nonzero"/></clipPath></defs><g clip-path="url(#cfc6c98ed6)"><path fill="#0048cc" d="M 312.988281 60.328125 L 56.96875 60.179688 C 51.351562 60.179688 46.796875 64.734375 46.796875 70.359375 L 46.847656 234.253906 C 47.042969 236.179688 47.945312 242.613281 53.328125 248.082031 C 59.308594 254.160156 66.648438 254.789062 68.410156 254.890625 L 90.789062 254.890625 L 81.761719 300.070312 L 90.523438 300.070312 C 92.238281 300.070312 93.875 299.382812 95.070312 298.15625 C 101.546875 291.507812 123.441406 269.082031 137.675781 254.890625 L 322.683594 254.890625 C 328.300781 254.890625 332.851562 250.335938 332.851562 244.710938 L 332.851562 81.8125 C 332.851562 67.097656 318.605469 60.328125 312.988281 60.328125 Z M 312.988281 60.328125 " fill-opacity="1" fill-rule="nonzero"/></g><g clip-path="url(#6ce9484fdd)"><path fill="#437de7" d="M 311.238281 60.179688 L 56.96875 60.179688 C 51.351562 60.179688 46.796875 64.734375 46.796875 70.359375 L 46.796875 233.257812 C 46.796875 238.878906 51.351562 243.4375 56.96875 243.4375 L 81.757812 243.4375 L 81.757812 300.070312 C 81.757812 300.070312 86.476562 295.222656 93.199219 288.351562 C 108.152344 273.070312 133.027344 247.769531 138.0625 243.4375 L 311.238281 243.4375 C 316.855469 243.4375 321.410156 238.878906 321.410156 233.257812 L 321.410156 70.359375 C 321.410156 64.734375 316.855469 60.179688 311.238281 60.179688 Z M 311.238281 60.179688 " fill-opacity="1" fill-rule="nonzero"/></g><path fill="#0048cc" d="M 148.503906 153.082031 C 148.503906 153.664062 148.476562 154.246094 148.421875 154.828125 C 148.363281 155.40625 148.277344 155.984375 148.164062 156.554688 C 148.050781 157.128906 147.910156 157.695312 147.738281 158.253906 C 147.570312 158.8125 147.375 159.359375 147.152344 159.898438 C 146.929688 160.4375 146.679688 160.964844 146.402344 161.480469 C 146.128906 161.992188 145.828125 162.492188 145.507812 162.980469 C 145.183594 163.464844 144.835938 163.933594 144.464844 164.382812 C 144.097656 164.835938 143.703125 165.265625 143.292969 165.679688 C 142.878906 166.089844 142.449219 166.484375 142 166.851562 C 141.546875 167.222656 141.082031 167.570312 140.59375 167.894531 C 140.109375 168.21875 139.613281 168.519531 139.097656 168.792969 C 138.582031 169.070312 138.058594 169.316406 137.519531 169.542969 C 136.980469 169.765625 136.429688 169.960938 135.875 170.128906 C 135.316406 170.300781 134.75 170.441406 134.179688 170.554688 C 133.609375 170.667969 133.03125 170.753906 132.453125 170.8125 C 131.871094 170.867188 131.289062 170.898438 130.707031 170.898438 C 130.125 170.898438 129.542969 170.867188 128.960938 170.8125 C 128.382812 170.753906 127.804688 170.667969 127.234375 170.554688 C 126.664062 170.441406 126.097656 170.300781 125.539062 170.128906 C 124.984375 169.960938 124.433594 169.765625 123.894531 169.542969 C 123.355469 169.316406 122.832031 169.070312 122.316406 168.792969 C 121.800781 168.519531 121.304688 168.21875 120.820312 167.894531 C 120.332031 167.570312 119.867188 167.222656 119.414062 166.851562 C 118.964844 166.484375 118.535156 166.089844 118.121094 165.679688 C 117.710938 165.265625 117.316406 164.835938 116.949219 164.382812 C 116.578125 163.933594 116.230469 163.464844 115.90625 162.980469 C 115.582031 162.492188 115.285156 161.992188 115.011719 161.480469 C 114.734375 160.964844 114.484375 160.4375 114.261719 159.898438 C 114.039062 159.359375 113.84375 158.8125 113.675781 158.253906 C 113.503906 157.695312 113.363281 157.128906 113.25 156.554688 C 113.136719 155.984375 113.050781 155.40625 112.992188 154.828125 C 112.9375 154.246094 112.90625 153.664062 112.90625 153.082031 C 112.90625 152.496094 112.9375 151.914062 112.992188 151.335938 C 113.050781 150.753906 113.136719 150.175781 113.25 149.605469 C 113.363281 149.03125 113.503906 148.46875 113.675781 147.910156 C 113.84375 147.351562 114.039062 146.800781 114.261719 146.261719 C 114.484375 145.722656 114.734375 145.195312 115.011719 144.683594 C 115.285156 144.167969 115.582031 143.667969 115.90625 143.183594 C 116.230469 142.695312 116.578125 142.230469 116.949219 141.777344 C 117.316406 141.328125 117.710938 140.894531 118.121094 140.480469 C 118.535156 140.070312 118.964844 139.679688 119.414062 139.308594 C 119.867188 138.9375 120.332031 138.589844 120.820312 138.265625 C 121.304688 137.941406 121.800781 137.640625 122.316406 137.367188 C 122.832031 137.09375 123.355469 136.84375 123.894531 136.621094 C 124.433594 136.394531 124.984375 136.199219 125.539062 136.03125 C 126.097656 135.863281 126.664062 135.71875 127.234375 135.605469 C 127.804688 135.492188 128.382812 135.40625 128.960938 135.347656 C 129.542969 135.292969 130.125 135.261719 130.707031 135.261719 C 131.289062 135.261719 131.871094 135.292969 132.453125 135.347656 C 133.03125 135.40625 133.609375 135.492188 134.179688 135.605469 C 134.75 135.71875 135.316406 135.863281 135.875 136.03125 C 136.429688 136.199219 136.980469 136.394531 137.519531 136.621094 C 138.058594 136.84375 138.582031 137.09375 139.097656 137.367188 C 139.613281 137.640625 140.109375 137.941406 140.59375 138.265625 C 141.082031 138.589844 141.546875 138.9375 142 139.308594 C 142.449219 139.679688 142.878906 140.070312 143.292969 140.480469 C 143.703125 140.894531 144.097656 141.328125 144.464844 141.777344 C 144.835938 142.230469 145.183594 142.695312 145.507812 143.183594 C 145.828125 143.667969 146.128906 144.167969 146.402344 144.683594 C 146.679688 145.195312 146.929688 145.722656 147.152344 146.261719 C 147.375 146.800781 147.570312 147.351562 147.738281 147.910156 C 147.910156 148.46875 148.050781 149.03125 148.164062 149.605469 C 148.277344 150.175781 148.363281 150.753906 148.421875 151.335938 C 148.476562 151.914062 148.503906 152.496094 148.503906 153.082031 Z M 148.503906 153.082031 " fill-opacity="1" fill-rule="nonzero"/><path fill="#0048cc" d="M 262.925781 153.082031 C 262.925781 153.664062 262.898438 154.246094 262.839844 154.828125 C 262.785156 155.40625 262.699219 155.984375 262.585938 156.554688 C 262.472656 157.128906 262.332031 157.695312 262.160156 158.253906 C 261.992188 158.8125 261.796875 159.359375 261.574219 159.898438 C 261.347656 160.4375 261.101562 160.964844 260.824219 161.480469 C 260.550781 161.992188 260.25 162.492188 259.929688 162.980469 C 259.605469 163.464844 259.257812 163.933594 258.886719 164.382812 C 258.515625 164.835938 258.125 165.265625 257.714844 165.679688 C 257.300781 166.089844 256.871094 166.484375 256.421875 166.851562 C 255.96875 167.222656 255.5 167.570312 255.015625 167.894531 C 254.53125 168.21875 254.03125 168.519531 253.519531 168.792969 C 253.003906 169.070312 252.476562 169.316406 251.941406 169.542969 C 251.402344 169.765625 250.851562 169.960938 250.296875 170.128906 C 249.738281 170.300781 249.171875 170.441406 248.601562 170.554688 C 248.027344 170.667969 247.453125 170.753906 246.875 170.8125 C 246.292969 170.867188 245.710938 170.898438 245.128906 170.898438 C 244.546875 170.898438 243.964844 170.867188 243.382812 170.8125 C 242.804688 170.753906 242.226562 170.667969 241.65625 170.554688 C 241.085938 170.441406 240.519531 170.300781 239.960938 170.128906 C 239.402344 169.960938 238.855469 169.765625 238.316406 169.542969 C 237.777344 169.316406 237.253906 169.070312 236.738281 168.792969 C 236.222656 168.519531 235.726562 168.21875 235.238281 167.894531 C 234.753906 167.570312 234.289062 167.222656 233.835938 166.851562 C 233.386719 166.484375 232.953125 166.089844 232.542969 165.679688 C 232.128906 165.265625 231.738281 164.835938 231.371094 164.382812 C 231 163.933594 230.652344 163.464844 230.328125 162.980469 C 230.003906 162.492188 229.707031 161.992188 229.429688 161.480469 C 229.15625 160.964844 228.90625 160.4375 228.683594 159.898438 C 228.460938 159.359375 228.265625 158.8125 228.097656 158.253906 C 227.925781 157.695312 227.785156 157.128906 227.671875 156.554688 C 227.558594 155.984375 227.472656 155.40625 227.414062 154.828125 C 227.359375 154.246094 227.328125 153.664062 227.328125 153.082031 C 227.328125 152.496094 227.359375 151.914062 227.414062 151.335938 C 227.472656 150.753906 227.558594 150.175781 227.671875 149.605469 C 227.785156 149.03125 227.925781 148.46875 228.097656 147.910156 C 228.265625 147.351562 228.460938 146.800781 228.683594 146.261719 C 228.90625 145.722656 229.15625 145.195312 229.429688 144.683594 C 229.707031 144.167969 230.003906 143.667969 230.328125 143.183594 C 230.652344 142.695312 231 142.230469 231.371094 141.777344 C 231.738281 141.328125 232.128906 140.894531 232.542969 140.480469 C 232.953125 140.070312 233.386719 139.679688 233.835938 139.308594 C 234.289062 138.9375 234.753906 138.589844 235.238281 138.265625 C 235.726562 137.941406 236.222656 137.640625 236.738281 137.367188 C 237.253906 137.09375 237.777344 136.84375 238.316406 136.621094 C 238.855469 136.394531 239.402344 136.199219 239.960938 136.03125 C 240.519531 135.863281 241.085938 135.71875 241.65625 135.605469 C 242.226562 135.492188 242.804688 135.40625 243.382812 135.347656 C 243.964844 135.292969 244.546875 135.261719 245.128906 135.261719 C 245.710938 135.261719 246.292969 135.292969 246.875 135.347656 C 247.453125 135.40625 248.027344 135.492188 248.601562 135.605469 C 249.171875 135.71875 249.738281 135.863281 250.296875 136.03125 C 250.851562 136.199219 251.402344 136.394531 251.941406 136.621094 C 252.476562 136.84375 253.003906 137.09375 253.519531 137.367188 C 254.03125 137.640625 254.53125 137.941406 255.015625 138.265625 C 255.5 138.589844 255.96875 138.9375 256.421875 139.308594 C 256.871094 139.679688 257.300781 140.070312 257.714844 140.480469 C 258.125 140.894531 258.515625 141.328125 258.886719 141.777344 C 259.257812 142.230469 259.605469 142.695312 259.925781 143.183594 C 260.25 143.667969 260.550781 144.167969 260.824219 144.683594 C 261.101562 145.195312 261.347656 145.722656 261.574219 146.261719 C 261.796875 146.800781 261.992188 147.351562 262.160156 147.910156 C 262.332031 148.46875 262.472656 149.03125 262.585938 149.605469 C 262.699219 150.175781 262.785156 150.753906 262.839844 151.335938 C 262.898438 151.914062 262.925781 152.496094 262.925781 153.082031 Z M 262.925781 153.082031 " fill-opacity="1" fill-rule="nonzero"/><path fill="#0048cc" d="M 205.714844 153.082031 C 205.714844 153.664062 205.6875 154.246094 205.628906 154.828125 C 205.574219 155.40625 205.488281 155.984375 205.375 156.554688 C 205.261719 157.128906 205.117188 157.695312 204.949219 158.253906 C 204.78125 158.8125 204.585938 159.359375 204.359375 159.898438 C 204.136719 160.4375 203.890625 160.964844 203.613281 161.480469 C 203.339844 161.992188 203.039062 162.492188 202.714844 162.980469 C 202.390625 163.464844 202.046875 163.933594 201.675781 164.382812 C 201.304688 164.835938 200.914062 165.265625 200.503906 165.679688 C 200.089844 166.089844 199.660156 166.484375 199.207031 166.851562 C 198.757812 167.222656 198.289062 167.570312 197.804688 167.894531 C 197.320312 168.21875 196.820312 168.519531 196.308594 168.792969 C 195.792969 169.070312 195.265625 169.316406 194.726562 169.542969 C 194.191406 169.765625 193.640625 169.960938 193.082031 170.128906 C 192.527344 170.300781 191.960938 170.441406 191.390625 170.554688 C 190.816406 170.667969 190.242188 170.753906 189.660156 170.8125 C 189.082031 170.867188 188.5 170.898438 187.917969 170.898438 C 187.335938 170.898438 186.753906 170.867188 186.171875 170.8125 C 185.59375 170.753906 185.015625 170.667969 184.445312 170.554688 C 183.871094 170.441406 183.308594 170.300781 182.75 170.128906 C 182.191406 169.960938 181.644531 169.765625 181.105469 169.542969 C 180.566406 169.316406 180.039062 169.070312 179.527344 168.792969 C 179.011719 168.519531 178.511719 168.21875 178.027344 167.894531 C 177.542969 167.570312 177.078125 167.222656 176.625 166.851562 C 176.175781 166.484375 175.742188 166.089844 175.332031 165.679688 C 174.917969 165.265625 174.527344 164.835938 174.160156 164.382812 C 173.789062 163.933594 173.441406 163.464844 173.117188 162.980469 C 172.792969 162.492188 172.496094 161.992188 172.21875 161.480469 C 171.945312 160.964844 171.695312 160.4375 171.472656 159.898438 C 171.25 159.359375 171.054688 158.8125 170.882812 158.253906 C 170.714844 157.695312 170.574219 157.128906 170.460938 156.554688 C 170.347656 155.984375 170.261719 155.40625 170.203125 154.828125 C 170.148438 154.246094 170.117188 153.664062 170.117188 153.082031 C 170.117188 152.496094 170.148438 151.914062 170.203125 151.335938 C 170.261719 150.753906 170.347656 150.175781 170.460938 149.605469 C 170.574219 149.03125 170.714844 148.46875 170.882812 147.910156 C 171.054688 147.351562 171.25 146.800781 171.472656 146.261719 C 171.695312 145.722656 171.945312 145.195312 172.21875 144.683594 C 172.496094 144.167969 172.792969 143.667969 173.117188 143.183594 C 173.441406 142.695312 173.789062 142.230469 174.160156 141.777344 C 174.527344 141.328125 174.917969 140.894531 175.332031 140.480469 C 175.742188 140.070312 176.175781 139.679688 176.625 139.308594 C 177.078125 138.9375 177.542969 138.589844 178.027344 138.265625 C 178.511719 137.941406 179.011719 137.640625 179.527344 137.367188 C 180.039062 137.09375 180.566406 136.84375 181.105469 136.621094 C 181.644531 136.394531 182.191406 136.199219 182.75 136.03125 C 183.308594 135.863281 183.871094 135.71875 184.445312 135.605469 C 185.015625 135.492188 185.59375 135.40625 186.171875 135.347656 C 186.753906 135.292969 187.335938 135.261719 187.917969 135.261719 C 188.5 135.261719 189.082031 135.292969 189.660156 135.347656 C 190.242188 135.40625 190.816406 135.492188 191.390625 135.605469 C 191.960938 135.71875 192.527344 135.863281 193.082031 136.03125 C 193.640625 136.199219 194.191406 136.394531 194.726562 136.621094 C 195.265625 136.84375 195.792969 137.09375 196.308594 137.367188 C 196.820312 137.640625 197.320312 137.941406 197.804688 138.265625 C 198.289062 138.589844 198.757812 138.9375 199.207031 139.308594 C 199.660156 139.679688 200.089844 140.070312 200.503906 140.480469 C 200.914062 140.894531 201.304688 141.328125 201.675781 141.777344 C 202.046875 142.230469 202.390625 142.695312 202.714844 143.183594 C 203.039062 143.667969 203.339844 144.167969 203.613281 144.683594 C 203.890625 145.195312 204.136719 145.722656 204.359375 146.261719 C 204.585938 146.800781 204.78125 147.351562 204.949219 147.910156 C 205.117188 148.46875 205.261719 149.03125 205.375 149.605469 C 205.488281 150.175781 205.574219 150.753906 205.628906 151.335938 C 205.6875 151.914062 205.714844 152.496094 205.714844 153.082031 Z M 205.714844 153.082031 " fill-opacity="1" fill-rule="nonzero"/><path fill="#ffffff" d="M 144.054688 151.808594 C 144.054688 152.371094 144.027344 152.933594 143.972656 153.492188 C 143.917969 154.054688 143.835938 154.609375 143.726562 155.160156 C 143.617188 155.710938 143.480469 156.257812 143.316406 156.796875 C 143.152344 157.335938 142.964844 157.863281 142.75 158.382812 C 142.535156 158.902344 142.292969 159.410156 142.027344 159.90625 C 141.765625 160.40625 141.476562 160.886719 141.164062 161.355469 C 140.851562 161.820312 140.515625 162.273438 140.160156 162.707031 C 139.804688 163.144531 139.425781 163.558594 139.027344 163.957031 C 138.632812 164.355469 138.214844 164.734375 137.78125 165.089844 C 137.347656 165.445312 136.894531 165.78125 136.425781 166.09375 C 135.960938 166.40625 135.480469 166.695312 134.984375 166.960938 C 134.488281 167.226562 133.980469 167.46875 133.460938 167.683594 C 132.941406 167.898438 132.414062 168.085938 131.875 168.25 C 131.335938 168.414062 130.792969 168.550781 130.242188 168.660156 C 129.6875 168.769531 129.132812 168.851562 128.574219 168.90625 C 128.015625 168.960938 127.453125 168.988281 126.890625 168.988281 C 126.328125 168.988281 125.769531 168.960938 125.210938 168.90625 C 124.648438 168.851562 124.09375 168.769531 123.542969 168.660156 C 122.992188 168.550781 122.449219 168.414062 121.910156 168.25 C 121.371094 168.085938 120.84375 167.898438 120.324219 167.683594 C 119.804688 167.46875 119.296875 167.226562 118.800781 166.960938 C 118.304688 166.695312 117.824219 166.40625 117.355469 166.09375 C 116.890625 165.78125 116.4375 165.445312 116.003906 165.089844 C 115.570312 164.734375 115.152344 164.355469 114.753906 163.957031 C 114.359375 163.558594 113.980469 163.144531 113.625 162.707031 C 113.269531 162.273438 112.933594 161.820312 112.621094 161.355469 C 112.308594 160.886719 112.019531 160.40625 111.753906 159.90625 C 111.488281 159.410156 111.25 158.902344 111.035156 158.382812 C 110.820312 157.863281 110.628906 157.335938 110.46875 156.796875 C 110.304688 156.257812 110.167969 155.710938 110.058594 155.160156 C 109.949219 154.609375 109.867188 154.054688 109.8125 153.492188 C 109.753906 152.933594 109.726562 152.371094 109.726562 151.808594 C 109.726562 151.246094 109.753906 150.683594 109.8125 150.125 C 109.867188 149.566406 109.949219 149.007812 110.058594 148.457031 C 110.167969 147.90625 110.304688 147.359375 110.46875 146.820312 C 110.628906 146.28125 110.820312 145.753906 111.035156 145.234375 C 111.25 144.714844 111.488281 144.207031 111.753906 143.710938 C 112.019531 143.214844 112.308594 142.730469 112.621094 142.261719 C 112.933594 141.796875 113.269531 141.34375 113.625 140.910156 C 113.980469 140.472656 114.359375 140.058594 114.753906 139.660156 C 115.152344 139.261719 115.570312 138.882812 116.003906 138.527344 C 116.4375 138.171875 116.890625 137.835938 117.355469 137.523438 C 117.824219 137.210938 118.304688 136.921875 118.800781 136.65625 C 119.296875 136.390625 119.804688 136.152344 120.324219 135.9375 C 120.84375 135.71875 121.371094 135.53125 121.910156 135.367188 C 122.449219 135.203125 122.992188 135.066406 123.542969 134.957031 C 124.09375 134.847656 124.648438 134.765625 125.210938 134.710938 C 125.769531 134.65625 126.328125 134.628906 126.890625 134.628906 C 127.453125 134.628906 128.015625 134.65625 128.574219 134.710938 C 129.132812 134.765625 129.6875 134.847656 130.242188 134.957031 C 130.792969 135.066406 131.335938 135.203125 131.875 135.367188 C 132.414062 135.53125 132.941406 135.71875 133.460938 135.9375 C 133.980469 136.152344 134.488281 136.390625 134.984375 136.65625 C 135.480469 136.921875 135.960938 137.210938 136.425781 137.523438 C 136.894531 137.835938 137.347656 138.171875 137.78125 138.527344 C 138.214844 138.882812 138.632812 139.261719 139.027344 139.660156 C 139.425781 140.058594 139.804688 140.472656 140.160156 140.910156 C 140.515625 141.34375 140.851562 141.796875 141.164062 142.261719 C 141.476562 142.730469 141.765625 143.214844 142.027344 143.710938 C 142.292969 144.207031 142.535156 144.714844 142.75 145.234375 C 142.964844 145.753906 143.152344 146.28125 143.316406 146.820312 C 143.480469 147.359375 143.617188 147.90625 143.726562 148.457031 C 143.835938 149.007812 143.917969 149.566406 143.972656 150.125 C 144.027344 150.683594 144.054688 151.246094 144.054688 151.808594 Z M 144.054688 151.808594 " fill-opacity="1" fill-rule="nonzero"/><path fill="#ffffff" d="M 258.480469 151.808594 C 258.480469 152.371094 258.453125 152.933594 258.394531 153.492188 C 258.339844 154.054688 258.257812 154.609375 258.148438 155.160156 C 258.039062 155.710938 257.902344 156.257812 257.738281 156.796875 C 257.578125 157.335938 257.386719 157.863281 257.171875 158.382812 C 256.957031 158.902344 256.71875 159.410156 256.453125 159.90625 C 256.1875 160.40625 255.898438 160.886719 255.585938 161.355469 C 255.273438 161.820312 254.9375 162.273438 254.582031 162.707031 C 254.226562 163.144531 253.847656 163.558594 253.453125 163.957031 C 253.054688 164.355469 252.636719 164.734375 252.203125 165.089844 C 251.769531 165.445312 251.316406 165.78125 250.851562 166.09375 C 250.382812 166.40625 249.902344 166.695312 249.40625 166.960938 C 248.910156 167.226562 248.402344 167.46875 247.882812 167.683594 C 247.363281 167.898438 246.835938 168.085938 246.296875 168.25 C 245.757812 168.414062 245.214844 168.550781 244.664062 168.660156 C 244.113281 168.769531 243.558594 168.851562 242.996094 168.90625 C 242.4375 168.960938 241.878906 168.988281 241.316406 168.988281 C 240.753906 168.988281 240.191406 168.960938 239.632812 168.90625 C 239.074219 168.851562 238.519531 168.769531 237.964844 168.660156 C 237.414062 168.550781 236.871094 168.414062 236.332031 168.25 C 235.792969 168.085938 235.265625 167.898438 234.746094 167.683594 C 234.226562 167.46875 233.71875 167.226562 233.222656 166.960938 C 232.726562 166.695312 232.246094 166.40625 231.78125 166.09375 C 231.3125 165.78125 230.859375 165.445312 230.425781 165.089844 C 229.992188 164.734375 229.574219 164.355469 229.179688 163.957031 C 228.78125 163.558594 228.402344 163.144531 228.046875 162.707031 C 227.691406 162.273438 227.355469 161.820312 227.042969 161.355469 C 226.730469 160.886719 226.441406 160.40625 226.179688 159.90625 C 225.914062 159.410156 225.671875 158.902344 225.457031 158.382812 C 225.242188 157.863281 225.054688 157.335938 224.890625 156.796875 C 224.726562 156.257812 224.589844 155.710938 224.480469 155.160156 C 224.371094 154.609375 224.289062 154.054688 224.234375 153.492188 C 224.179688 152.933594 224.152344 152.371094 224.152344 151.808594 C 224.152344 151.246094 224.179688 150.683594 224.234375 150.125 C 224.289062 149.566406 224.371094 149.007812 224.480469 148.457031 C 224.589844 147.90625 224.726562 147.359375 224.890625 146.820312 C 225.054688 146.28125 225.242188 145.753906 225.457031 145.234375 C 225.671875 144.714844 225.914062 144.207031 226.179688 143.710938 C 226.441406 143.214844 226.730469 142.730469 227.042969 142.261719 C 227.355469 141.796875 227.691406 141.34375 228.046875 140.910156 C 228.402344 140.472656 228.78125 140.058594 229.179688 139.660156 C 229.574219 139.261719 229.992188 138.882812 230.425781 138.527344 C 230.859375 138.171875 231.3125 137.835938 231.78125 137.523438 C 232.246094 137.210938 232.726562 136.921875 233.222656 136.65625 C 233.71875 136.390625 234.226562 136.152344 234.746094 135.9375 C 235.265625 135.71875 235.792969 135.53125 236.332031 135.367188 C 236.871094 135.203125 237.414062 135.066406 237.964844 134.957031 C 238.519531 134.847656 239.074219 134.765625 239.632812 134.710938 C 240.191406 134.65625 240.753906 134.628906 241.316406 134.628906 C 241.878906 134.628906 242.4375 134.65625 242.996094 134.710938 C 243.558594 134.765625 244.113281 134.847656 244.664062 134.957031 C 245.214844 135.066406 245.757812 135.203125 246.296875 135.367188 C 246.835938 135.53125 247.363281 135.71875 247.882812 135.9375 C 248.402344 136.152344 248.910156 136.390625 249.40625 136.65625 C 249.902344 136.921875 250.382812 137.210938 250.851562 137.523438 C 251.316406 137.835938 251.769531 138.171875 252.203125 138.527344 C 252.636719 138.882812 253.054688 139.261719 253.453125 139.660156 C 253.847656 140.058594 254.226562 140.472656 254.582031 140.910156 C 254.9375 141.34375 255.273438 141.796875 255.585938 142.261719 C 255.898438 142.730469 256.1875 143.214844 256.453125 143.710938 C 256.71875 144.207031 256.957031 144.714844 257.171875 145.234375 C 257.386719 145.753906 257.578125 146.28125 257.738281 146.820312 C 257.902344 147.359375 258.039062 147.90625 258.148438 148.457031 C 258.257812 149.007812 258.339844 149.566406 258.394531 150.125 C 258.453125 150.683594 258.480469 151.246094 258.480469 151.808594 Z M 258.480469 151.808594 " fill-opacity="1" fill-rule="nonzero"/><path fill="#ffffff" d="M 201.265625 151.808594 C 201.265625 152.371094 201.238281 152.933594 201.183594 153.492188 C 201.128906 154.054688 201.046875 154.609375 200.9375 155.160156 C 200.828125 155.710938 200.691406 156.257812 200.527344 156.796875 C 200.363281 157.335938 200.175781 157.863281 199.960938 158.382812 C 199.746094 158.902344 199.503906 159.410156 199.242188 159.90625 C 198.976562 160.40625 198.6875 160.886719 198.375 161.355469 C 198.0625 161.820312 197.726562 162.273438 197.371094 162.707031 C 197.015625 163.144531 196.636719 163.558594 196.238281 163.957031 C 195.84375 164.355469 195.425781 164.734375 194.992188 165.089844 C 194.558594 165.445312 194.105469 165.78125 193.640625 166.09375 C 193.171875 166.40625 192.691406 166.695312 192.195312 166.960938 C 191.699219 167.226562 191.191406 167.46875 190.671875 167.683594 C 190.152344 167.898438 189.625 168.085938 189.085938 168.25 C 188.546875 168.414062 188.003906 168.550781 187.453125 168.660156 C 186.902344 168.769531 186.34375 168.851562 185.785156 168.90625 C 185.226562 168.960938 184.664062 168.988281 184.105469 168.988281 C 183.542969 168.988281 182.980469 168.960938 182.421875 168.90625 C 181.863281 168.851562 181.304688 168.769531 180.753906 168.660156 C 180.203125 168.550781 179.660156 168.414062 179.121094 168.25 C 178.582031 168.085938 178.054688 167.898438 177.535156 167.683594 C 177.015625 167.46875 176.507812 167.226562 176.011719 166.960938 C 175.515625 166.695312 175.035156 166.40625 174.566406 166.09375 C 174.101562 165.78125 173.648438 165.445312 173.214844 165.089844 C 172.78125 164.734375 172.363281 164.355469 171.96875 163.957031 C 171.570312 163.558594 171.191406 163.144531 170.835938 162.707031 C 170.480469 162.273438 170.144531 161.820312 169.832031 161.355469 C 169.519531 160.886719 169.230469 160.40625 168.964844 159.90625 C 168.703125 159.410156 168.460938 158.902344 168.246094 158.382812 C 168.03125 157.863281 167.84375 157.335938 167.679688 156.796875 C 167.515625 156.257812 167.378906 155.710938 167.269531 155.160156 C 167.160156 154.609375 167.078125 154.054688 167.023438 153.492188 C 166.96875 152.933594 166.941406 152.371094 166.941406 151.808594 C 166.941406 151.246094 166.96875 150.683594 167.023438 150.125 C 167.078125 149.566406 167.160156 149.007812 167.269531 148.457031 C 167.378906 147.90625 167.515625 147.359375 167.679688 146.820312 C 167.84375 146.28125 168.03125 145.753906 168.246094 145.234375 C 168.460938 144.714844 168.703125 144.207031 168.964844 143.710938 C 169.230469 143.214844 169.519531 142.730469 169.832031 142.261719 C 170.144531 141.796875 170.480469 141.34375 170.835938 140.910156 C 171.191406 140.472656 171.570312 140.058594 171.96875 139.660156 C 172.363281 139.261719 172.78125 138.882812 173.214844 138.527344 C 173.648438 138.171875 174.101562 137.835938 174.566406 137.523438 C 175.035156 137.210938 175.515625 136.921875 176.011719 136.65625 C 176.507812 136.390625 177.015625 136.152344 177.535156 135.9375 C 178.054688 135.71875 178.582031 135.53125 179.121094 135.367188 C 179.660156 135.203125 180.203125 135.066406 180.753906 134.957031 C 181.304688 134.847656 181.863281 134.765625 182.421875 134.710938 C 182.980469 134.65625 183.542969 134.628906 184.105469 134.628906 C 184.664062 134.628906 185.226562 134.65625 185.785156 134.710938 C 186.34375 134.765625 186.902344 134.847656 187.453125 134.957031 C 188.003906 135.066406 188.546875 135.203125 189.085938 135.367188 C 189.625 135.53125 190.152344 135.71875 190.671875 135.9375 C 191.191406 136.152344 191.699219 136.390625 192.195312 136.65625 C 192.691406 136.921875 193.171875 137.210938 193.640625 137.523438 C 194.105469 137.835938 194.558594 138.171875 194.992188 138.527344 C 195.425781 138.882812 195.84375 139.261719 196.238281 139.660156 C 196.636719 140.058594 197.015625 140.472656 197.371094 140.910156 C 197.726562 141.34375 198.0625 141.796875 198.375 142.261719 C 198.6875 142.730469 198.976562 143.214844 199.242188 143.710938 C 199.503906 144.207031 199.746094 144.714844 199.960938 145.234375 C 200.175781 145.753906 200.363281 146.28125 200.527344 146.820312 C 200.691406 147.359375 200.828125 147.90625 200.9375 148.457031 C 201.046875 149.007812 201.128906 149.566406 201.183594 150.125 C 201.238281 150.683594 201.265625 151.246094 201.265625 151.808594 Z M 201.265625 151.808594 " fill-opacity="1" fill-rule="nonzero"/><g clip-path="url(#84755ba568)"><path fill="#eb0e0e" d="M 349.050781 86.84375 C 349.050781 88.578125 348.964844 90.3125 348.796875 92.039062 C 348.625 93.769531 348.371094 95.484375 348.03125 97.1875 C 347.695312 98.890625 347.273438 100.574219 346.769531 102.234375 C 346.265625 103.894531 345.683594 105.53125 345.019531 107.132812 C 344.355469 108.738281 343.613281 110.304688 342.796875 111.835938 C 341.976562 113.367188 341.085938 114.855469 340.125 116.300781 C 339.160156 117.746094 338.128906 119.136719 337.027344 120.480469 C 335.925781 121.824219 334.761719 123.109375 333.535156 124.335938 C 332.308594 125.5625 331.027344 126.726562 329.683594 127.828125 C 328.34375 128.933594 326.953125 129.964844 325.507812 130.929688 C 324.066406 131.894531 322.582031 132.785156 321.050781 133.605469 C 319.519531 134.421875 317.953125 135.164062 316.351562 135.828125 C 314.75 136.492188 313.117188 137.078125 311.457031 137.582031 C 309.796875 138.085938 308.117188 138.507812 306.414062 138.847656 C 304.714844 139.1875 303 139.441406 301.273438 139.609375 C 299.546875 139.78125 297.816406 139.867188 296.082031 139.867188 C 294.347656 139.867188 292.617188 139.78125 290.890625 139.609375 C 289.164062 139.441406 287.449219 139.1875 285.75 138.847656 C 284.046875 138.507812 282.367188 138.085938 280.707031 137.582031 C 279.046875 137.078125 277.414062 136.492188 275.8125 135.828125 C 274.207031 135.164062 272.640625 134.421875 271.113281 133.605469 C 269.582031 132.785156 268.097656 131.894531 266.652344 130.929688 C 265.210938 129.964844 263.820312 128.933594 262.480469 127.828125 C 261.136719 126.726562 259.855469 125.5625 258.628906 124.335938 C 257.402344 123.109375 256.238281 121.824219 255.136719 120.480469 C 254.035156 119.136719 253.003906 117.746094 252.039062 116.300781 C 251.074219 114.855469 250.183594 113.367188 249.367188 111.835938 C 248.550781 110.304688 247.808594 108.738281 247.144531 107.132812 C 246.480469 105.53125 245.898438 103.894531 245.394531 102.234375 C 244.890625 100.574219 244.46875 98.890625 244.128906 97.1875 C 243.792969 95.484375 243.539062 93.769531 243.367188 92.039062 C 243.199219 90.3125 243.113281 88.578125 243.113281 86.84375 C 243.113281 85.105469 243.199219 83.375 243.367188 81.644531 C 243.539062 79.917969 243.792969 78.203125 244.128906 76.5 C 244.46875 74.796875 244.890625 73.113281 245.394531 71.449219 C 245.898438 69.789062 246.480469 68.15625 247.144531 66.550781 C 247.808594 64.949219 248.550781 63.378906 249.367188 61.847656 C 250.183594 60.316406 251.074219 58.828125 252.039062 57.386719 C 253.003906 55.941406 254.035156 54.546875 255.136719 53.207031 C 256.238281 51.863281 257.402344 50.578125 258.628906 49.351562 C 259.855469 48.121094 261.136719 46.957031 262.480469 45.855469 C 263.820312 44.753906 265.210938 43.722656 266.652344 42.757812 C 268.097656 41.792969 269.582031 40.898438 271.113281 40.082031 C 272.640625 39.261719 274.207031 38.519531 275.8125 37.855469 C 277.414062 37.191406 279.046875 36.605469 280.707031 36.101562 C 282.367188 35.597656 284.046875 35.175781 285.75 34.839844 C 287.449219 34.5 289.164062 34.246094 290.890625 34.074219 C 292.617188 33.90625 294.347656 33.820312 296.082031 33.820312 C 297.816406 33.820312 299.546875 33.90625 301.273438 34.074219 C 303 34.246094 304.714844 34.5 306.414062 34.839844 C 308.117188 35.175781 309.796875 35.597656 311.457031 36.101562 C 313.117188 36.605469 314.75 37.191406 316.351562 37.855469 C 317.953125 38.519531 319.519531 39.261719 321.050781 40.082031 C 322.582031 40.898438 324.066406 41.792969 325.507812 42.757812 C 326.953125 43.722656 328.34375 44.753906 329.683594 45.855469 C 331.027344 46.957031 332.308594 48.121094 333.535156 49.351562 C 334.761719 50.578125 335.925781 51.863281 337.027344 53.207031 C 338.128906 54.546875 339.160156 55.941406 340.125 57.386719 C 341.085938 58.828125 341.976562 60.316406 342.796875 61.847656 C 343.613281 63.378906 344.355469 64.949219 345.019531 66.550781 C 345.683594 68.15625 346.265625 69.789062 346.769531 71.449219 C 347.273438 73.113281 347.695312 74.796875 348.03125 76.5 C 348.371094 78.203125 348.625 79.917969 348.796875 81.644531 C 348.964844 83.375 349.050781 85.105469 349.050781 86.84375 Z M 349.050781 86.84375 " fill-opacity="1" fill-rule="nonzero"/></g><path fill="#ffffff" d="M 307.460938 108.167969 C 304.402344 107.960938 302.480469 107.695312 301.699219 106.953125 C 301.027344 106.316406 300.90625 104.96875 300.90625 102.378906 L 300.90625 62.105469 C 300.90625 61.726562 300.722656 61.371094 300.414062 61.152344 C 300.105469 60.933594 299.707031 60.878906 299.351562 61.007812 C 293.601562 63.054688 289.050781 64.292969 284.59375 65.019531 C 284.03125 65.109375 283.617188 65.597656 283.617188 66.171875 L 283.617188 68.042969 C 283.617188 68.667969 284.109375 69.183594 284.738281 69.207031 L 288.890625 69.367188 C 289.90625 69.433594 290.878906 69.535156 291.09375 69.804688 C 291.417969 70.21875 291.417969 71.871094 291.417969 72.855469 L 291.417969 102.378906 C 291.417969 104.980469 291.304688 106.332031 290.652344 106.960938 C 289.894531 107.695312 287.914062 107.964844 284.96875 108.167969 C 284.359375 108.207031 283.882812 108.71875 283.882812 109.332031 L 283.882812 111.578125 C 283.882812 112.222656 284.40625 112.746094 285.050781 112.746094 L 307.382812 112.746094 C 308.027344 112.746094 308.546875 112.222656 308.546875 111.578125 L 308.546875 109.332031 C 308.546875 108.71875 308.074219 108.210938 307.460938 108.167969 Z M 307.460938 108.167969 " fill-opacity="1" fill-rule="nonzero"/></svg>