<svg xmlns="http://www.w3.org/2000/svg" xmlns:xlink="http://www.w3.org/1999/xlink" width="500" zoomAndPan="magnify" viewBox="0 0 375 374.999991" height="500" preserveAspectRatio="xMidYMid meet" version="1.0"><defs><clipPath id="06f95a0c8b"><path d="M 160 37.5 L 215 37.5 L 215 92 L 160 92 Z M 160 37.5 " clip-rule="nonzero"/></clipPath><clipPath id="aac80ee02f"><path d="M 178 37.5 L 215 37.5 L 215 92 L 178 92 Z M 178 37.5 " clip-rule="nonzero"/></clipPath><clipPath id="c70710ca60"><path d="M 160 282 L 215 282 L 215 336.75 L 160 336.75 Z M 160 282 " clip-rule="nonzero"/></clipPath><clipPath id="32b7d5c6bd"><path d="M 178 282 L 215 282 L 215 336.75 L 178 336.75 Z M 178 282 " clip-rule="nonzero"/></clipPath><clipPath id="bb07b1cddc"><path d="M 276 102 L 330.660156 102 L 330.660156 157 L 276 157 Z M 276 102 " clip-rule="nonzero"/></clipPath><clipPath id="10dc4ee161"><path d="M 294 102 L 330.660156 102 L 330.660156 157 L 294 157 Z M 294 102 " clip-rule="nonzero"/></clipPath><clipPath id="e929d8aa47"><path d="M 276 217 L 330.660156 217 L 330.660156 272 L 276 272 Z M 276 217 " clip-rule="nonzero"/></clipPath><clipPath id="4d78646055"><path d="M 294 217 L 330.660156 217 L 330.660156 272 L 294 272 Z M 294 217 " clip-rule="nonzero"/></clipPath><clipPath id="b2c6e5170f"><path d="M 44.160156 102 L 99 102 L 99 157 L 44.160156 157 Z M 44.160156 102 " clip-rule="nonzero"/></clipPath><clipPath id="cd87d2bead"><path d="M 44.160156 217 L 99 217 L 99 272 L 44.160156 272 Z M 44.160156 217 " clip-rule="nonzero"/></clipPath></defs><path fill="#5e6b75" d="M 304.074219 245.617188 L 302.574219 244.800781 C 311.425781 227.117188 316.109375 207.484375 316.109375 187.125 C 316.109375 166.769531 311.425781 147.132812 302.574219 129.449219 L 304.074219 128.632812 C 306.199219 127.476562 306.984375 124.820312 305.832031 122.695312 C 304.679688 120.570312 302.023438 119.78125 299.902344 120.9375 L 298.382812 121.765625 C 292.910156 112.476562 286.230469 103.820312 278.414062 95.992188 C 254.105469 71.648438 221.785156 58.242188 187.410156 58.242188 C 153.03125 58.242188 120.710938 71.648438 96.402344 95.992188 C 88.589844 103.816406 81.910156 112.476562 76.433594 121.761719 L 74.917969 120.9375 C 72.796875 119.78125 70.140625 120.570312 68.988281 122.695312 C 67.835938 124.820312 68.621094 127.476562 70.742188 128.632812 L 72.246094 129.449219 C 63.390625 147.132812 58.707031 166.769531 58.707031 187.125 C 58.707031 207.480469 63.390625 227.117188 72.242188 244.800781 L 70.742188 245.617188 C 68.617188 246.773438 67.832031 249.429688 68.988281 251.554688 C 69.777344 253.015625 71.28125 253.84375 72.832031 253.84375 C 73.539062 253.84375 74.253906 253.671875 74.917969 253.3125 L 76.433594 252.488281 C 81.90625 261.773438 88.585938 270.433594 96.402344 278.257812 C 120.710938 302.601562 153.03125 316.007812 187.40625 316.007812 C 221.785156 316.007812 254.105469 302.601562 278.414062 278.257812 C 286.230469 270.433594 292.90625 261.773438 298.382812 252.488281 L 299.902344 253.3125 C 300.5625 253.671875 301.28125 253.84375 301.984375 253.84375 C 303.535156 253.84375 305.039062 253.015625 305.832031 251.554688 C 306.984375 249.429688 306.199219 246.773438 304.074219 245.617188 Z M 307.367188 187.125 C 307.367188 206.316406 302.839844 224.46875 294.8125 240.578125 L 196.566406 187.125 L 294.8125 133.671875 C 302.839844 149.78125 307.367188 167.933594 307.367188 187.125 Z M 187.410156 67 C 231.273438 67 269.703125 90.703125 290.625 125.984375 L 191.78125 179.761719 L 191.78125 72.386719 C 191.78125 69.964844 189.824219 68.007812 187.410156 68.007812 C 184.996094 68.007812 183.035156 69.964844 183.035156 72.386719 L 183.035156 179.761719 L 84.191406 125.984375 C 105.113281 90.703125 143.546875 67 187.410156 67 Z M 67.453125 187.125 C 67.453125 167.933594 71.976562 149.78125 80.003906 133.671875 L 178.25 187.125 L 80.003906 240.578125 C 71.976562 224.46875 67.453125 206.316406 67.453125 187.125 Z M 187.410156 307.25 C 143.546875 307.25 105.113281 283.546875 84.191406 248.265625 L 183.035156 194.488281 L 183.035156 301.867188 C 183.035156 304.285156 184.996094 306.242188 187.410156 306.242188 C 189.824219 306.242188 191.78125 304.285156 191.78125 301.867188 L 191.78125 194.488281 L 290.625 248.265625 C 269.703125 283.546875 231.273438 307.25 187.410156 307.25 Z M 187.410156 307.25 " fill-opacity="1" fill-rule="nonzero"/><path fill="#dd5790" d="M 225.355469 156.5625 L 194.867188 138.9375 C 190.253906 136.269531 184.566406 136.269531 179.949219 138.9375 L 149.464844 156.5625 C 144.847656 159.230469 142.007812 164.160156 142.007812 169.5 L 142.007812 204.75 C 142.007812 210.089844 144.847656 215.019531 149.464844 217.6875 L 179.949219 235.3125 C 184.566406 237.980469 190.253906 237.980469 194.867188 235.3125 L 225.355469 217.6875 C 229.96875 215.019531 232.8125 210.089844 232.8125 204.75 L 232.8125 169.5 C 232.8125 164.160156 229.96875 159.230469 225.355469 156.5625 Z M 225.355469 156.5625 " fill-opacity="1" fill-rule="nonzero"/><path fill="#da387d" d="M 225.355469 156.5625 L 194.867188 138.9375 C 190.253906 136.269531 184.566406 136.269531 179.949219 138.9375 L 178.398438 139.832031 L 207.335938 156.5625 C 211.953125 159.230469 214.792969 164.160156 214.792969 169.5 L 214.792969 204.75 C 214.792969 210.085938 211.953125 215.019531 207.335938 217.6875 L 178.398438 234.417969 L 179.953125 235.3125 C 184.566406 237.980469 190.253906 237.980469 194.867188 235.3125 L 225.355469 217.6875 C 229.96875 215.019531 232.8125 210.085938 232.8125 204.75 L 232.8125 169.5 C 232.8125 164.160156 229.96875 159.230469 225.355469 156.5625 Z M 225.355469 156.5625 " fill-opacity="1" fill-rule="nonzero"/><g clip-path="url(#06f95a0c8b)"><path fill="#ffe07d" d="M 214.4375 64.726562 C 214.4375 65.613281 214.394531 66.496094 214.308594 67.378906 C 214.21875 68.261719 214.089844 69.136719 213.917969 70.007812 C 213.746094 70.875 213.53125 71.734375 213.273438 72.582031 C 213.015625 73.433594 212.71875 74.265625 212.378906 75.085938 C 212.042969 75.902344 211.664062 76.703125 211.246094 77.484375 C 210.828125 78.265625 210.375 79.027344 209.882812 79.765625 C 209.390625 80.5 208.863281 81.210938 208.300781 81.898438 C 207.742188 82.582031 207.148438 83.238281 206.519531 83.867188 C 205.894531 84.492188 205.238281 85.085938 204.554688 85.648438 C 203.871094 86.210938 203.160156 86.738281 202.425781 87.230469 C 201.6875 87.722656 200.929688 88.179688 200.148438 88.597656 C 199.371094 89.015625 198.570312 89.394531 197.753906 89.734375 C 196.933594 90.070312 196.101562 90.371094 195.253906 90.628906 C 194.40625 90.882812 193.550781 91.101562 192.683594 91.273438 C 191.8125 91.445312 190.9375 91.574219 190.058594 91.664062 C 189.175781 91.75 188.292969 91.792969 187.410156 91.792969 C 186.523438 91.792969 185.640625 91.75 184.761719 91.664062 C 183.878906 91.574219 183.003906 91.445312 182.136719 91.273438 C 181.269531 91.101562 180.410156 90.882812 179.5625 90.628906 C 178.714844 90.371094 177.882812 90.070312 177.066406 89.734375 C 176.25 89.394531 175.449219 89.015625 174.667969 88.597656 C 173.886719 88.179688 173.128906 87.722656 172.394531 87.230469 C 171.65625 86.738281 170.945312 86.210938 170.261719 85.648438 C 169.578125 85.085938 168.921875 84.492188 168.296875 83.867188 C 167.671875 83.238281 167.078125 82.582031 166.515625 81.898438 C 165.953125 81.210938 165.429688 80.5 164.9375 79.765625 C 164.445312 79.027344 163.988281 78.265625 163.574219 77.484375 C 163.15625 76.703125 162.777344 75.902344 162.4375 75.085938 C 162.101562 74.265625 161.800781 73.433594 161.546875 72.582031 C 161.289062 71.734375 161.074219 70.875 160.902344 70.007812 C 160.726562 69.136719 160.597656 68.261719 160.511719 67.378906 C 160.425781 66.496094 160.382812 65.613281 160.382812 64.726562 C 160.382812 63.839844 160.425781 62.957031 160.511719 62.074219 C 160.597656 61.191406 160.726562 60.316406 160.902344 59.445312 C 161.074219 58.578125 161.289062 57.71875 161.546875 56.871094 C 161.800781 56.023438 162.101562 55.1875 162.4375 54.371094 C 162.777344 53.550781 163.15625 52.75 163.574219 51.96875 C 163.988281 51.1875 164.445312 50.425781 164.9375 49.691406 C 165.429688 48.953125 165.953125 48.242188 166.515625 47.554688 C 167.078125 46.871094 167.671875 46.214844 168.296875 45.589844 C 168.921875 44.960938 169.578125 44.367188 170.261719 43.804688 C 170.945312 43.242188 171.65625 42.714844 172.394531 42.222656 C 173.128906 41.730469 173.886719 41.273438 174.667969 40.855469 C 175.449219 40.4375 176.25 40.0625 177.066406 39.722656 C 177.882812 39.382812 178.714844 39.082031 179.5625 38.828125 C 180.410156 38.570312 181.269531 38.355469 182.136719 38.179688 C 183.003906 38.007812 183.878906 37.878906 184.761719 37.792969 C 185.640625 37.703125 186.523438 37.660156 187.410156 37.660156 C 188.292969 37.660156 189.175781 37.703125 190.058594 37.792969 C 190.9375 37.878906 191.8125 38.007812 192.683594 38.179688 C 193.550781 38.355469 194.40625 38.570312 195.253906 38.828125 C 196.101562 39.082031 196.933594 39.382812 197.753906 39.722656 C 198.570312 40.0625 199.371094 40.4375 200.148438 40.855469 C 200.929688 41.273438 201.6875 41.730469 202.425781 42.222656 C 203.160156 42.714844 203.871094 43.242188 204.554688 43.804688 C 205.238281 44.367188 205.894531 44.960938 206.519531 45.589844 C 207.148438 46.214844 207.742188 46.871094 208.300781 47.554688 C 208.863281 48.242188 209.390625 48.953125 209.882812 49.691406 C 210.375 50.425781 210.828125 51.1875 211.246094 51.96875 C 211.664062 52.75 212.042969 53.550781 212.378906 54.371094 C 212.71875 55.1875 213.015625 56.023438 213.273438 56.871094 C 213.53125 57.71875 213.746094 58.578125 213.917969 59.445312 C 214.089844 60.316406 214.21875 61.191406 214.308594 62.074219 C 214.394531 62.957031 214.4375 63.839844 214.4375 64.726562 Z M 214.4375 64.726562 " fill-opacity="1" fill-rule="nonzero"/></g><g clip-path="url(#aac80ee02f)"><path fill="#ffd064" d="M 187.410156 37.660156 C 184.25 37.660156 181.21875 38.210938 178.398438 39.207031 C 188.894531 42.921875 196.417969 52.941406 196.417969 64.726562 C 196.417969 76.511719 188.894531 86.53125 178.398438 90.246094 C 181.21875 91.246094 184.25 91.792969 187.410156 91.792969 C 202.335938 91.792969 214.4375 79.675781 214.4375 64.726562 C 214.4375 49.777344 202.335938 37.660156 187.410156 37.660156 Z M 187.410156 37.660156 " fill-opacity="1" fill-rule="nonzero"/></g><g clip-path="url(#c70710ca60)"><path fill="#ffe07d" d="M 214.4375 309.523438 C 214.4375 310.410156 214.394531 311.292969 214.308594 312.175781 C 214.21875 313.058594 214.089844 313.933594 213.917969 314.804688 C 213.746094 315.671875 213.53125 316.53125 213.273438 317.378906 C 213.015625 318.226562 212.71875 319.0625 212.378906 319.878906 C 212.042969 320.699219 211.664062 321.5 211.246094 322.28125 C 210.828125 323.0625 210.375 323.824219 209.882812 324.558594 C 209.390625 325.296875 208.863281 326.007812 208.300781 326.691406 C 207.742188 327.378906 207.148438 328.035156 206.519531 328.660156 C 205.894531 329.289062 205.238281 329.882812 204.554688 330.445312 C 203.871094 331.007812 203.160156 331.535156 202.425781 332.027344 C 201.6875 332.519531 200.929688 332.976562 200.148438 333.394531 C 199.371094 333.8125 198.570312 334.1875 197.753906 334.527344 C 196.933594 334.867188 196.101562 335.167969 195.253906 335.421875 C 194.40625 335.679688 193.550781 335.894531 192.683594 336.070312 C 191.8125 336.242188 190.9375 336.371094 190.058594 336.457031 C 189.175781 336.546875 188.292969 336.589844 187.410156 336.589844 C 186.523438 336.589844 185.640625 336.546875 184.761719 336.457031 C 183.878906 336.371094 183.003906 336.242188 182.136719 336.070312 C 181.269531 335.894531 180.410156 335.679688 179.5625 335.421875 C 178.714844 335.167969 177.882812 334.867188 177.066406 334.527344 C 176.25 334.1875 175.449219 333.8125 174.667969 333.394531 C 173.886719 332.976562 173.128906 332.519531 172.394531 332.027344 C 171.65625 331.535156 170.945312 331.007812 170.261719 330.445312 C 169.578125 329.882812 168.921875 329.289062 168.296875 328.660156 C 167.671875 328.035156 167.078125 327.378906 166.515625 326.691406 C 165.953125 326.007812 165.429688 325.296875 164.9375 324.558594 C 164.445312 323.824219 163.988281 323.0625 163.574219 322.28125 C 163.15625 321.5 162.777344 320.699219 162.4375 319.878906 C 162.101562 319.0625 161.800781 318.226562 161.546875 317.378906 C 161.289062 316.53125 161.074219 315.671875 160.902344 314.804688 C 160.726562 313.933594 160.597656 313.058594 160.511719 312.175781 C 160.425781 311.292969 160.382812 310.410156 160.382812 309.523438 C 160.382812 308.636719 160.425781 307.753906 160.511719 306.871094 C 160.597656 305.988281 160.726562 305.113281 160.902344 304.242188 C 161.074219 303.375 161.289062 302.515625 161.546875 301.667969 C 161.800781 300.816406 162.101562 299.984375 162.4375 299.164062 C 162.777344 298.347656 163.15625 297.546875 163.574219 296.765625 C 163.988281 295.984375 164.445312 295.222656 164.9375 294.484375 C 165.429688 293.75 165.953125 293.039062 166.515625 292.351562 C 167.078125 291.667969 167.671875 291.011719 168.296875 290.382812 C 168.921875 289.757812 169.578125 289.164062 170.261719 288.601562 C 170.945312 288.039062 171.65625 287.511719 172.394531 287.019531 C 173.128906 286.527344 173.886719 286.070312 174.667969 285.652344 C 175.449219 285.234375 176.25 284.855469 177.066406 284.515625 C 177.882812 284.179688 178.714844 283.878906 179.5625 283.621094 C 180.410156 283.367188 181.269531 283.148438 182.136719 282.976562 C 183.003906 282.804688 183.878906 282.675781 184.761719 282.585938 C 185.640625 282.5 186.523438 282.457031 187.410156 282.457031 C 188.292969 282.457031 189.175781 282.5 190.058594 282.585938 C 190.9375 282.675781 191.8125 282.804688 192.683594 282.976562 C 193.550781 283.148438 194.40625 283.367188 195.253906 283.621094 C 196.101562 283.878906 196.933594 284.179688 197.753906 284.515625 C 198.570312 284.855469 199.371094 285.234375 200.148438 285.652344 C 200.929688 286.070312 201.6875 286.527344 202.425781 287.019531 C 203.160156 287.511719 203.871094 288.039062 204.554688 288.601562 C 205.238281 289.164062 205.894531 289.757812 206.519531 290.382812 C 207.148438 291.011719 207.742188 291.667969 208.300781 292.351562 C 208.863281 293.039062 209.390625 293.75 209.882812 294.484375 C 210.375 295.222656 210.828125 295.984375 211.246094 296.765625 C 211.664062 297.546875 212.042969 298.347656 212.378906 299.164062 C 212.71875 299.984375 213.015625 300.816406 213.273438 301.667969 C 213.53125 302.515625 213.746094 303.375 213.917969 304.242188 C 214.089844 305.113281 214.21875 305.988281 214.308594 306.871094 C 214.394531 307.753906 214.4375 308.636719 214.4375 309.523438 Z M 214.4375 309.523438 " fill-opacity="1" fill-rule="nonzero"/></g><g clip-path="url(#32b7d5c6bd)"><path fill="#ffd064" d="M 187.410156 282.457031 C 184.25 282.457031 181.21875 283.003906 178.398438 284.003906 C 188.894531 287.71875 196.417969 297.738281 196.417969 309.523438 C 196.417969 321.308594 188.894531 331.328125 178.398438 335.042969 C 181.21875 336.039062 184.25 336.589844 187.410156 336.589844 C 202.335938 336.589844 214.4375 324.472656 214.4375 309.523438 C 214.4375 294.574219 202.335938 282.457031 187.410156 282.457031 Z M 187.410156 282.457031 " fill-opacity="1" fill-rule="nonzero"/></g><g clip-path="url(#bb07b1cddc)"><path fill="#61a2f9" d="M 330.65625 129.382812 C 330.65625 130.269531 330.613281 131.15625 330.527344 132.039062 C 330.441406 132.917969 330.3125 133.796875 330.140625 134.664062 C 329.964844 135.535156 329.75 136.394531 329.496094 137.242188 C 329.238281 138.089844 328.9375 138.921875 328.601562 139.742188 C 328.261719 140.5625 327.882812 141.363281 327.464844 142.144531 C 327.050781 142.925781 326.59375 143.683594 326.101562 144.421875 C 325.609375 145.160156 325.085938 145.871094 324.523438 146.554688 C 323.960938 147.242188 323.367188 147.894531 322.742188 148.523438 C 322.117188 149.148438 321.460938 149.746094 320.777344 150.308594 C 320.09375 150.871094 319.382812 151.398438 318.644531 151.890625 C 317.910156 152.382812 317.152344 152.835938 316.371094 153.253906 C 315.589844 153.671875 314.792969 154.050781 313.972656 154.390625 C 313.15625 154.730469 312.324219 155.027344 311.476562 155.285156 C 310.628906 155.542969 309.769531 155.757812 308.902344 155.929688 C 308.035156 156.101562 307.160156 156.234375 306.28125 156.320312 C 305.398438 156.40625 304.515625 156.449219 303.628906 156.449219 C 302.746094 156.449219 301.863281 156.40625 300.980469 156.320312 C 300.101562 156.234375 299.226562 156.101562 298.355469 155.929688 C 297.488281 155.757812 296.632812 155.542969 295.785156 155.285156 C 294.9375 155.027344 294.105469 154.730469 293.285156 154.390625 C 292.46875 154.050781 291.667969 153.671875 290.890625 153.253906 C 290.109375 152.835938 289.351562 152.382812 288.613281 151.890625 C 287.878906 151.398438 287.167969 150.871094 286.484375 150.308594 C 285.800781 149.746094 285.144531 149.148438 284.519531 148.523438 C 283.890625 147.894531 283.296875 147.242188 282.738281 146.554688 C 282.175781 145.871094 281.648438 145.160156 281.15625 144.421875 C 280.664062 143.683594 280.210938 142.925781 279.792969 142.144531 C 279.375 141.363281 279 140.5625 278.660156 139.742188 C 278.320312 138.921875 278.023438 138.089844 277.765625 137.242188 C 277.507812 136.394531 277.292969 135.535156 277.121094 134.664062 C 276.949219 133.796875 276.820312 132.917969 276.730469 132.039062 C 276.644531 131.15625 276.601562 130.269531 276.601562 129.382812 C 276.601562 128.5 276.644531 127.613281 276.730469 126.730469 C 276.820312 125.847656 276.949219 124.972656 277.121094 124.105469 C 277.292969 123.234375 277.507812 122.375 277.765625 121.527344 C 278.023438 120.679688 278.320312 119.847656 278.660156 119.027344 C 279 118.207031 279.375 117.40625 279.792969 116.625 C 280.210938 115.84375 280.664062 115.085938 281.15625 114.347656 C 281.648438 113.609375 282.175781 112.898438 282.738281 112.214844 C 283.296875 111.527344 283.890625 110.875 284.519531 110.246094 C 285.144531 109.621094 285.800781 109.023438 286.484375 108.460938 C 287.167969 107.898438 287.878906 107.371094 288.613281 106.878906 C 289.351562 106.386719 290.109375 105.933594 290.890625 105.515625 C 291.667969 105.097656 292.46875 104.71875 293.285156 104.378906 C 294.105469 104.039062 294.9375 103.742188 295.785156 103.484375 C 296.632812 103.226562 297.488281 103.011719 298.355469 102.839844 C 299.226562 102.664062 300.101562 102.535156 300.980469 102.449219 C 301.863281 102.363281 302.746094 102.320312 303.628906 102.320312 C 304.515625 102.320312 305.398438 102.363281 306.28125 102.449219 C 307.160156 102.535156 308.035156 102.664062 308.902344 102.839844 C 309.769531 103.011719 310.628906 103.226562 311.476562 103.484375 C 312.324219 103.742188 313.15625 104.039062 313.972656 104.378906 C 314.792969 104.71875 315.589844 105.097656 316.371094 105.515625 C 317.152344 105.933594 317.910156 106.386719 318.644531 106.878906 C 319.382812 107.371094 320.09375 107.898438 320.777344 108.460938 C 321.460938 109.023438 322.117188 109.621094 322.742188 110.246094 C 323.367188 110.875 323.960938 111.527344 324.523438 112.214844 C 325.085938 112.898438 325.609375 113.609375 326.101562 114.347656 C 326.59375 115.085938 327.050781 115.84375 327.464844 116.625 C 327.882812 117.40625 328.261719 118.207031 328.601562 119.027344 C 328.9375 119.847656 329.238281 120.679688 329.496094 121.527344 C 329.75 122.375 329.964844 123.234375 330.140625 124.105469 C 330.3125 124.972656 330.441406 125.847656 330.527344 126.730469 C 330.613281 127.613281 330.65625 128.5 330.65625 129.382812 Z M 330.65625 129.382812 " fill-opacity="1" fill-rule="nonzero"/></g><g clip-path="url(#10dc4ee161)"><path fill="#5490f9" d="M 303.628906 102.316406 C 300.46875 102.316406 297.441406 102.867188 294.621094 103.863281 C 305.117188 107.582031 312.640625 117.601562 312.640625 129.382812 C 312.640625 141.167969 305.117188 151.1875 294.621094 154.902344 C 297.441406 155.902344 300.46875 156.449219 303.628906 156.449219 C 318.558594 156.449219 330.65625 144.332031 330.65625 129.382812 C 330.65625 114.4375 318.558594 102.316406 303.628906 102.316406 Z M 303.628906 102.316406 " fill-opacity="1" fill-rule="nonzero"/></g><g clip-path="url(#e929d8aa47)"><path fill="#c8ea73" d="M 330.65625 244.867188 C 330.65625 245.75 330.613281 246.636719 330.527344 247.519531 C 330.441406 248.398438 330.3125 249.277344 330.140625 250.144531 C 329.964844 251.015625 329.75 251.875 329.496094 252.722656 C 329.238281 253.570312 328.9375 254.402344 328.601562 255.222656 C 328.261719 256.042969 327.882812 256.84375 327.464844 257.625 C 327.050781 258.40625 326.59375 259.164062 326.101562 259.902344 C 325.609375 260.640625 325.085938 261.351562 324.523438 262.035156 C 323.960938 262.722656 323.367188 263.375 322.742188 264.003906 C 322.117188 264.628906 321.460938 265.226562 320.777344 265.789062 C 320.09375 266.351562 319.382812 266.878906 318.644531 267.371094 C 317.910156 267.863281 317.152344 268.316406 316.371094 268.734375 C 315.589844 269.152344 314.792969 269.53125 313.972656 269.871094 C 313.15625 270.210938 312.324219 270.507812 311.476562 270.765625 C 310.628906 271.023438 309.769531 271.238281 308.902344 271.410156 C 308.035156 271.582031 307.160156 271.714844 306.28125 271.800781 C 305.398438 271.886719 304.515625 271.929688 303.628906 271.929688 C 302.746094 271.929688 301.863281 271.886719 300.980469 271.800781 C 300.101562 271.714844 299.226562 271.582031 298.355469 271.410156 C 297.488281 271.238281 296.632812 271.023438 295.785156 270.765625 C 294.9375 270.507812 294.105469 270.210938 293.285156 269.871094 C 292.46875 269.53125 291.667969 269.152344 290.890625 268.734375 C 290.109375 268.316406 289.351562 267.863281 288.613281 267.371094 C 287.878906 266.878906 287.167969 266.351562 286.484375 265.789062 C 285.800781 265.226562 285.144531 264.628906 284.519531 264.003906 C 283.890625 263.375 283.296875 262.722656 282.738281 262.035156 C 282.175781 261.351562 281.648438 260.640625 281.15625 259.902344 C 280.664062 259.164062 280.210938 258.40625 279.792969 257.625 C 279.375 256.84375 279 256.042969 278.660156 255.222656 C 278.320312 254.402344 278.023438 253.570312 277.765625 252.722656 C 277.507812 251.875 277.292969 251.015625 277.121094 250.144531 C 276.949219 249.277344 276.820312 248.398438 276.730469 247.519531 C 276.644531 246.636719 276.601562 245.75 276.601562 244.867188 C 276.601562 243.980469 276.644531 243.09375 276.730469 242.210938 C 276.820312 241.332031 276.949219 240.453125 277.121094 239.585938 C 277.292969 238.714844 277.507812 237.855469 277.765625 237.007812 C 278.023438 236.160156 278.320312 235.328125 278.660156 234.507812 C 279 233.6875 279.375 232.886719 279.792969 232.105469 C 280.210938 231.324219 280.664062 230.566406 281.15625 229.828125 C 281.648438 229.089844 282.175781 228.378906 282.738281 227.695312 C 283.296875 227.007812 283.890625 226.355469 284.519531 225.726562 C 285.144531 225.101562 285.800781 224.503906 286.484375 223.941406 C 287.167969 223.378906 287.878906 222.851562 288.613281 222.359375 C 289.351562 221.867188 290.109375 221.414062 290.890625 220.996094 C 291.667969 220.578125 292.46875 220.199219 293.285156 219.859375 C 294.105469 219.519531 294.9375 219.222656 295.785156 218.964844 C 296.632812 218.707031 297.488281 218.492188 298.355469 218.320312 C 299.226562 218.148438 300.101562 218.015625 300.980469 217.929688 C 301.863281 217.84375 302.746094 217.800781 303.628906 217.800781 C 304.515625 217.800781 305.398438 217.84375 306.28125 217.929688 C 307.160156 218.015625 308.035156 218.148438 308.902344 218.320312 C 309.769531 218.492188 310.628906 218.707031 311.476562 218.964844 C 312.324219 219.222656 313.15625 219.519531 313.972656 219.859375 C 314.792969 220.199219 315.589844 220.578125 316.371094 220.996094 C 317.152344 221.414062 317.910156 221.867188 318.644531 222.359375 C 319.382812 222.851562 320.09375 223.378906 320.777344 223.941406 C 321.460938 224.503906 322.117188 225.101562 322.742188 225.726562 C 323.367188 226.355469 323.960938 227.007812 324.523438 227.695312 C 325.085938 228.378906 325.609375 229.089844 326.101562 229.828125 C 326.59375 230.566406 327.050781 231.324219 327.464844 232.105469 C 327.882812 232.886719 328.261719 233.6875 328.601562 234.507812 C 328.9375 235.328125 329.238281 236.160156 329.496094 237.007812 C 329.75 237.855469 329.964844 238.714844 330.140625 239.585938 C 330.3125 240.453125 330.441406 241.332031 330.527344 242.210938 C 330.613281 243.09375 330.65625 243.980469 330.65625 244.867188 Z M 330.65625 244.867188 " fill-opacity="1" fill-rule="nonzero"/></g><g clip-path="url(#4d78646055)"><path fill="#b7e445" d="M 303.628906 217.800781 C 300.46875 217.800781 297.441406 218.347656 294.621094 219.34375 C 305.117188 223.0625 312.640625 233.082031 312.640625 244.867188 C 312.640625 256.648438 305.117188 266.667969 294.621094 270.386719 C 297.441406 271.382812 300.46875 271.929688 303.628906 271.929688 C 318.558594 271.929688 330.65625 259.8125 330.65625 244.867188 C 330.65625 229.917969 318.558594 217.800781 303.628906 217.800781 Z M 303.628906 217.800781 " fill-opacity="1" fill-rule="nonzero"/></g><g clip-path="url(#b2c6e5170f)"><path fill="#c8ea73" d="M 98.214844 129.382812 C 98.214844 130.269531 98.171875 131.15625 98.085938 132.039062 C 98 132.917969 97.871094 133.796875 97.695312 134.664062 C 97.523438 135.535156 97.308594 136.394531 97.050781 137.242188 C 96.796875 138.089844 96.496094 138.921875 96.160156 139.742188 C 95.820312 140.5625 95.441406 141.363281 95.023438 142.144531 C 94.609375 142.925781 94.152344 143.683594 93.660156 144.421875 C 93.167969 145.160156 92.644531 145.871094 92.082031 146.554688 C 91.519531 147.242188 90.925781 147.894531 90.300781 148.523438 C 89.675781 149.148438 89.019531 149.746094 88.335938 150.308594 C 87.652344 150.871094 86.941406 151.398438 86.203125 151.890625 C 85.46875 152.382812 84.710938 152.835938 83.929688 153.253906 C 83.148438 153.671875 82.347656 154.050781 81.53125 154.390625 C 80.714844 154.730469 79.882812 155.027344 79.035156 155.285156 C 78.1875 155.542969 77.328125 155.757812 76.460938 155.929688 C 75.59375 156.101562 74.71875 156.234375 73.835938 156.320312 C 72.957031 156.40625 72.074219 156.449219 71.1875 156.449219 C 70.304688 156.449219 69.421875 156.40625 68.539062 156.320312 C 67.660156 156.234375 66.785156 156.101562 65.914062 155.929688 C 65.046875 155.757812 64.191406 155.542969 63.34375 155.285156 C 62.496094 155.027344 61.664062 154.730469 60.84375 154.390625 C 60.027344 154.050781 59.226562 153.671875 58.449219 153.253906 C 57.667969 152.835938 56.910156 152.382812 56.171875 151.890625 C 55.4375 151.398438 54.726562 150.871094 54.042969 150.308594 C 53.359375 149.746094 52.703125 149.148438 52.078125 148.523438 C 51.449219 147.894531 50.855469 147.242188 50.296875 146.554688 C 49.734375 145.871094 49.207031 145.160156 48.714844 144.421875 C 48.222656 143.683594 47.769531 142.925781 47.351562 142.144531 C 46.933594 141.363281 46.554688 140.5625 46.21875 139.742188 C 45.878906 138.921875 45.582031 138.089844 45.324219 137.242188 C 45.066406 136.394531 44.851562 135.535156 44.679688 134.664062 C 44.507812 133.796875 44.378906 132.917969 44.289062 132.039062 C 44.203125 131.15625 44.160156 130.269531 44.160156 129.382812 C 44.160156 128.5 44.203125 127.613281 44.289062 126.730469 C 44.378906 125.847656 44.507812 124.972656 44.679688 124.105469 C 44.851562 123.234375 45.066406 122.375 45.324219 121.527344 C 45.582031 120.679688 45.878906 119.847656 46.21875 119.027344 C 46.554688 118.207031 46.933594 117.40625 47.351562 116.625 C 47.769531 115.84375 48.222656 115.085938 48.714844 114.347656 C 49.207031 113.609375 49.734375 112.898438 50.296875 112.214844 C 50.855469 111.527344 51.449219 110.875 52.078125 110.246094 C 52.703125 109.621094 53.359375 109.023438 54.042969 108.460938 C 54.726562 107.898438 55.4375 107.371094 56.171875 106.878906 C 56.910156 106.386719 57.667969 105.933594 58.449219 105.515625 C 59.226562 105.097656 60.027344 104.71875 60.84375 104.378906 C 61.664062 104.039062 62.496094 103.742188 63.34375 103.484375 C 64.191406 103.226562 65.046875 103.011719 65.914062 102.839844 C 66.785156 102.664062 67.660156 102.535156 68.539062 102.449219 C 69.421875 102.363281 70.304688 102.320312 71.1875 102.320312 C 72.074219 102.320312 72.957031 102.363281 73.835938 102.449219 C 74.71875 102.535156 75.59375 102.664062 76.460938 102.839844 C 77.328125 103.011719 78.1875 103.226562 79.035156 103.484375 C 79.882812 103.742188 80.714844 104.039062 81.53125 104.378906 C 82.347656 104.71875 83.148438 105.097656 83.929688 105.515625 C 84.710938 105.933594 85.46875 106.386719 86.203125 106.878906 C 86.941406 107.371094 87.652344 107.898438 88.335938 108.460938 C 89.019531 109.023438 89.675781 109.621094 90.300781 110.246094 C 90.925781 110.875 91.519531 111.527344 92.082031 112.214844 C 92.644531 112.898438 93.167969 113.609375 93.660156 114.347656 C 94.152344 115.085938 94.609375 115.84375 95.023438 116.625 C 95.441406 117.40625 95.820312 118.207031 96.160156 119.027344 C 96.496094 119.847656 96.796875 120.679688 97.050781 121.527344 C 97.308594 122.375 97.523438 123.234375 97.695312 124.105469 C 97.871094 124.972656 98 125.847656 98.085938 126.730469 C 98.171875 127.613281 98.214844 128.5 98.214844 129.382812 Z M 98.214844 129.382812 " fill-opacity="1" fill-rule="nonzero"/></g><path fill="#b7e445" d="M 71.1875 102.316406 C 68.027344 102.316406 64.996094 102.867188 62.179688 103.863281 C 72.675781 107.582031 80.199219 117.601562 80.199219 129.382812 C 80.199219 141.167969 72.675781 151.1875 62.179688 154.902344 C 64.996094 155.902344 68.027344 156.449219 71.1875 156.449219 C 86.117188 156.449219 98.214844 144.332031 98.214844 129.382812 C 98.214844 114.4375 86.117188 102.316406 71.1875 102.316406 Z M 71.1875 102.316406 " fill-opacity="1" fill-rule="nonzero"/><g clip-path="url(#cd87d2bead)"><path fill="#61a2f9" d="M 98.214844 244.867188 C 98.214844 245.75 98.171875 246.636719 98.085938 247.519531 C 98 248.398438 97.871094 249.277344 97.695312 250.144531 C 97.523438 251.015625 97.308594 251.875 97.050781 252.722656 C 96.796875 253.570312 96.496094 254.402344 96.160156 255.222656 C 95.820312 256.042969 95.441406 256.84375 95.023438 257.625 C 94.609375 258.40625 94.152344 259.164062 93.660156 259.902344 C 93.167969 260.640625 92.644531 261.351562 92.082031 262.035156 C 91.519531 262.722656 90.925781 263.375 90.300781 264.003906 C 89.675781 264.628906 89.019531 265.226562 88.335938 265.789062 C 87.652344 266.351562 86.941406 266.878906 86.203125 267.371094 C 85.46875 267.863281 84.710938 268.316406 83.929688 268.734375 C 83.148438 269.152344 82.347656 269.53125 81.53125 269.871094 C 80.714844 270.210938 79.882812 270.507812 79.035156 270.765625 C 78.1875 271.023438 77.328125 271.238281 76.460938 271.410156 C 75.59375 271.582031 74.71875 271.714844 73.835938 271.800781 C 72.957031 271.886719 72.074219 271.929688 71.1875 271.929688 C 70.304688 271.929688 69.421875 271.886719 68.539062 271.800781 C 67.660156 271.714844 66.785156 271.582031 65.914062 271.410156 C 65.046875 271.238281 64.191406 271.023438 63.34375 270.765625 C 62.496094 270.507812 61.664062 270.210938 60.84375 269.871094 C 60.027344 269.53125 59.226562 269.152344 58.449219 268.734375 C 57.667969 268.316406 56.910156 267.863281 56.171875 267.371094 C 55.4375 266.878906 54.726562 266.351562 54.042969 265.789062 C 53.359375 265.226562 52.703125 264.628906 52.078125 264.003906 C 51.449219 263.375 50.855469 262.722656 50.296875 262.035156 C 49.734375 261.351562 49.207031 260.640625 48.714844 259.902344 C 48.222656 259.164062 47.769531 258.40625 47.351562 257.625 C 46.933594 256.84375 46.554688 256.042969 46.21875 255.222656 C 45.878906 254.402344 45.582031 253.570312 45.324219 252.722656 C 45.066406 251.875 44.851562 251.015625 44.679688 250.144531 C 44.507812 249.277344 44.378906 248.398438 44.289062 247.519531 C 44.203125 246.636719 44.160156 245.75 44.160156 244.867188 C 44.160156 243.980469 44.203125 243.09375 44.289062 242.210938 C 44.378906 241.332031 44.507812 240.453125 44.679688 239.585938 C 44.851562 238.714844 45.066406 237.855469 45.324219 237.007812 C 45.582031 236.160156 45.878906 235.328125 46.21875 234.507812 C 46.554688 233.6875 46.933594 232.886719 47.351562 232.105469 C 47.769531 231.324219 48.222656 230.566406 48.714844 229.828125 C 49.207031 229.089844 49.734375 228.378906 50.296875 227.695312 C 50.855469 227.007812 51.449219 226.355469 52.078125 225.726562 C 52.703125 225.101562 53.359375 224.503906 54.042969 223.941406 C 54.726562 223.378906 55.4375 222.851562 56.171875 222.359375 C 56.910156 221.867188 57.667969 221.414062 58.449219 220.996094 C 59.226562 220.578125 60.027344 220.199219 60.84375 219.859375 C 61.664062 219.519531 62.496094 219.222656 63.34375 218.964844 C 64.191406 218.707031 65.046875 218.492188 65.914062 218.320312 C 66.785156 218.148438 67.660156 218.015625 68.539062 217.929688 C 69.421875 217.84375 70.304688 217.800781 71.1875 217.800781 C 72.074219 217.800781 72.957031 217.84375 73.835938 217.929688 C 74.71875 218.015625 75.59375 218.148438 76.460938 218.320312 C 77.328125 218.492188 78.1875 218.707031 79.035156 218.964844 C 79.882812 219.222656 80.714844 219.519531 81.53125 219.859375 C 82.347656 220.199219 83.148438 220.578125 83.929688 220.996094 C 84.710938 221.414062 85.46875 221.867188 86.203125 222.359375 C 86.941406 222.851562 87.652344 223.378906 88.335938 223.941406 C 89.019531 224.503906 89.675781 225.101562 90.300781 225.726562 C 90.925781 226.355469 91.519531 227.007812 92.082031 227.695312 C 92.644531 228.378906 93.167969 229.089844 93.660156 229.828125 C 94.152344 230.566406 94.609375 231.324219 95.023438 232.105469 C 95.441406 232.886719 95.820312 233.6875 96.160156 234.507812 C 96.496094 235.328125 96.796875 236.160156 97.050781 237.007812 C 97.308594 237.855469 97.523438 238.714844 97.695312 239.585938 C 97.871094 240.453125 98 241.332031 98.085938 242.210938 C 98.171875 243.09375 98.214844 243.980469 98.214844 244.867188 Z M 98.214844 244.867188 " fill-opacity="1" fill-rule="nonzero"/></g><path fill="#5490f9" d="M 71.1875 217.800781 C 68.027344 217.800781 64.996094 218.347656 62.179688 219.34375 C 72.675781 223.0625 80.199219 233.082031 80.199219 244.867188 C 80.199219 256.648438 72.675781 266.667969 62.179688 270.386719 C 64.996094 271.382812 68.027344 271.929688 71.1875 271.929688 C 86.117188 271.929688 98.214844 259.8125 98.214844 244.867188 C 98.214844 229.917969 86.117188 217.800781 71.1875 217.800781 Z M 71.1875 217.800781 " fill-opacity="1" fill-rule="nonzero"/></svg>